<svg xmlns="http://www.w3.org/2000/svg" xmlns:xlink="http://www.w3.org/1999/xlink" width="836.987" height="807.206" viewBox="0 0 221.453 213.573"><defs><linearGradient id="a"><stop offset="0" style="stop-color:#ff7a1a;stop-opacity:1"/><stop offset="1" style="stop-color:#ffc233;stop-opacity:1"/></linearGradient><linearGradient xlink:href="#a" id="b" x1="366.625" x2="309.663" y1="-165.21" y2="419.817" gradientTransform="rotate(15 -61.841 -180.576)scale(.37134 .14073)" gradientUnits="userSpaceOnUse"/></defs><path d="M104.192 50.811c0 12.454-8.679 6.969-12.527 18.813-3.849 11.844 6.397 12.508-.923 22.583-7.32 10.076-11.118.537-21.193 7.857s-2.177 13.88-14.02 17.727c-11.845 3.849-9.31-6.1-21.764-6.1s-9.92 9.949-21.763 6.1C.157 113.943 8.056 107.384-2.02 100.064s-13.873 2.219-21.193-7.857c-7.32-10.075 2.925-10.739-.923-22.583s-12.527-6.359-12.527-18.813 8.679-6.968 12.527-18.813-6.397-12.508.923-22.583S-12.094 8.88-2.019 1.56.158-12.321 12-16.17c11.845-3.848 9.31 6.1 21.764 6.1s9.919-9.948 21.763-6.1S59.474-5.76 69.55 1.56 83.423-.66 90.743 9.416s-2.926 10.74.923 22.583c3.848 11.845 12.527 6.36 12.527 18.813z" style="opacity:1;fill:#232834;fill-opacity:1;fill-rule:nonzero;stroke:#0b0c0f;stroke-width:3.2537;stroke-linecap:round;stroke-dasharray:none;stroke-opacity:1" transform="translate(58.84 28.704)scale(1.53671)"/><path d="m121.976 42.555-52.73.001a10 10 0 0 0-1.975.16 9.9 9.9 0 0 0-3.751 1.528 9.88 9.88 0 0 0-4.05 5.666L30.367 158.526c-1.418 5.29 1.727 10.734 7.016 12.151 5.29 1.418 10.734-1.726 12.151-7.015l24.02-89.643a15.68 15.68 0 0 1 15.143-11.62h.008a15.61 15.61 0 0 1 15.078 19.651l-2.44 9.108a9.9 9.9 0 0 0-.41 3.216 9.87 9.87 0 0 0 2.151 5.808 9.87 9.87 0 0 0 5.685 3.528c.79.17 1.58.24 2.358.219h52.4c5.476 0 9.922-4.446 9.922-9.922s-4.446-9.922-9.922-9.922h-31.125a6.615 6.615 0 0 1-6.39-8.326l1.61-6.006a9.92 9.92 0 0 1 9.583-7.354h44.299c5.476 0 9.922-4.446 9.922-9.922s-4.446-9.921-9.922-9.921zm-33.7 25.565c-4.225.17-8.036 3.05-9.188 7.348l-22.255 83.06c-1.418 5.29 1.726 10.734 7.015 12.151 5.29 1.418 10.735-1.726 12.152-7.015l22.256-83.06c1.417-5.29-1.727-10.735-7.016-12.152a9.9 9.9 0 0 0-2.964-.332m42.19 41.522q-.335 0-.664.022a9.86 9.86 0 0 0-4.825 1.636 9.88 9.88 0 0 0-4.1 5.698l-11.128 41.53c-1.417 5.29 1.727 10.734 7.016 12.151 5.29 1.418 10.734-1.726 12.152-7.015l7.187-26.824a9.92 9.92 0 0 1 9.584-7.354h9.46a9.92 9.92 0 0 1 9.583 7.354l7.188 26.824c1.417 5.29 6.862 8.433 12.151 7.015 5.29-1.417 8.434-6.862 7.016-12.151l-10.97-40.94c-.917-4.53-4.925-7.946-9.724-7.946zm-26.86.008c-4.225.17-8.036 3.05-9.188 7.348l-11.127 41.53c-1.417 5.29 1.726 10.734 7.015 12.152 5.29 1.417 10.735-1.726 12.152-7.016l11.128-41.53c1.417-5.29-1.726-10.734-7.015-12.151a9.9 9.9 0 0 0-2.965-.333" style="display:inline;opacity:1;mix-blend-mode:normal;fill:url(#b);fill-opacity:1;stroke:none;stroke-width:.228606;stroke-opacity:1"/></svg>